
<svg version="1.1" id="Capa_1" xmlns="http://www.w3.org/2000/svg" xmlns:xlink="http://www.w3.org/1999/xlink" x="0px" y="0px"
	 viewBox="0 0 512 512" style="enable-background:new 0 0 512 512;" xml:space="preserve" class="wht">
<g>
	<g>
		<path d="M386.113,214h-54c-5.522,0-10,4.478-10,10v54c0,5.522,4.478,10,10,10h54c5.522,0,10-4.478,10-10v-54
			C396.113,218.478,391.636,214,386.113,214z M376.113,268h-34v-34h34V268z"/>
	</g>
</g>
<g>
	<g>
		<path d="M283.113,214h-54c-5.522,0-10,4.478-10,10v54c0,5.522,4.478,10,10,10h54c5.522,0,10-4.478,10-10v-54
			C293.113,218.478,288.636,214,283.113,214z M273.113,268h-34v-34h34V268z"/>
	</g>
</g>
<g>
	<g>
		<path d="M180.113,214h-54c-5.522,0-10,4.478-10,10v54c0,5.522,4.478,10,10,10h54c5.522,0,10-4.478,10-10v-54
			C190.113,218.478,185.636,214,180.113,214z M170.113,268h-34v-34h34V268z"/>
	</g>
</g>
<g>
	<g>
		<path d="M229.113,348h-103c-5.522,0-10,4.478-10,10v54c0,5.522,4.478,10,10,10h103c5.522,0,10-4.478,10-10v-54
			C239.113,352.478,234.636,348,229.113,348z M219.113,402h-83v-34h83V402z"/>
	</g>
</g>
<g>
	<g>
		<path d="M384.22,348H273.737c-5.522,0-10,4.478-10,10c0,5.522,4.478,10,10,10H384.22c5.522,0,10-4.478,10-10
			C394.22,352.478,389.742,348,384.22,348z"/>
	</g>
</g>
<g>
	<g>
		<path d="M391.29,390.93c-1.86-1.861-4.44-2.93-7.07-2.93s-5.21,1.069-7.07,2.93c-1.859,1.86-2.93,4.44-2.93,7.07
			s1.07,5.21,2.93,7.069c1.86,1.86,4.44,2.931,7.07,2.931s5.21-1.07,7.07-2.931c1.859-1.859,2.93-4.439,2.93-7.069
			S393.15,392.79,391.29,390.93z"/>
	</g>
</g>
<g>
	<g>
		<path d="M344.333,388h-70.596c-5.522,0-10,4.478-10,10c0,5.522,4.478,10,10,10h70.596c5.522,0,10-4.478,10-10
			C354.333,392.478,349.855,388,344.333,388z"/>
	</g>
</g>
<g>
	<g>
		<path d="M160.829,38.716c-16.542,0-30,13.458-30,30s13.458,30,30,30c16.542,0,30-13.458,30-30S177.371,38.716,160.829,38.716z
			 M160.829,78.716c-5.514,0-10-4.486-10-10s4.486-10,10-10c5.514,0,10,4.486,10,10S166.343,78.716,160.829,78.716z"/>
	</g>
</g>
<g>
	<g>
		<path d="M502,438h-7V184.012c0-27.57-22.43-50-50-50h-9V10c0-5.522-4.478-10-10-10H86c-5.522,0-10,4.478-10,10v124.012h-9
			c-27.57,0-50,22.43-50,50v74.321c0,5.522,4.478,10,10,10s10-4.478,10-10v-74.321c0-16.542,13.458-30,30-30h9V438H37V337
			c0-5.522-4.478-10-10-10s-10,4.478-10,10v101h-7c-5.522,0-10,4.478-10,10v14c0,27.57,22.43,50,50,50h412c27.57,0,50-22.43,50-50
			v-14C512,442.478,507.522,438,502,438z M436,177.56c0-0.003,0-0.007,0-0.01v-23.538h9v0c16.542,0,30,13.458,30,30V438h-39V177.56z
			 M96,20h320v133.412l-84.675-84.675c-1.876-1.875-4.419-2.929-7.071-2.929c-2.652,0-5.195,1.054-7.071,2.929l-41.553,41.554
			l-17.225-17.225c-3.906-3.904-10.236-3.904-14.143,0L163.328,174H96V20z M289.772,124.434l34.482-34.483L408.303,174h-68.965
			L289.772,124.434z M311.053,174h-119.44l59.72-59.72L311.053,174z M96,194h320v114H96V194z M96,328h320v110H96V328z M492,462
			c0,16.542-13.458,30-30,30H50c-16.542,0-30-13.458-30-30v-4h8.348C28.426,458.001,492,458,492,458V462z"/>
	</g>
</g>
<g>
	<g>
		<path d="M274,465h-36.083c-5.522,0-10,4.478-10,10c0,5.522,4.478,10,10,10H274c5.522,0,10-4.478,10-10
			C284,469.478,279.522,465,274,465z"/>
	</g>
</g>
<g>
	<g>
		<path d="M34.069,293.93C32.21,292.069,29.63,291,27,291s-5.21,1.069-7.07,2.93C18.07,295.791,17,298.37,17,301
			s1.069,5.21,2.93,7.069C21.79,309.93,24.37,311,27,311s5.21-1.07,7.069-2.931C35.93,306.21,37,303.63,37,301
			S35.93,295.79,34.069,293.93z"/>
	</g>
</g>
</svg>
